<svg width="128" height="128" viewBox="0 0 128 128" fill="none" xmlns="http://www.w3.org/2000/svg">
<g clip-path="url(#clip0_2_10)">
<rect width="128" height="128" rx="24" fill="#110634"/>
<path d="M43.7415 40.4545V87H33.9006V49.7955H33.6278L22.9688 56.4773V47.75L34.4915 40.4545H43.7415ZM54.8949 87V52.0909H64.5767V87H54.8949ZM59.7585 47.5909C58.3191 47.5909 57.0843 47.1136 56.054 46.1591C55.0388 45.1894 54.5312 44.0303 54.5312 42.6818C54.5312 41.3485 55.0388 40.2045 56.054 39.25C57.0843 38.2803 58.3191 37.7955 59.7585 37.7955C61.1979 37.7955 62.4252 38.2803 63.4403 39.25C64.4706 40.2045 64.9858 41.3485 64.9858 42.6818C64.9858 44.0303 64.4706 45.1894 63.4403 46.1591C62.4252 47.1136 61.1979 47.5909 59.7585 47.5909ZM82.0142 66.8182V87H72.3324V52.0909H81.5597V58.25H81.9688C82.7415 56.2197 84.0369 54.6136 85.8551 53.4318C87.6733 52.2348 89.8778 51.6364 92.4688 51.6364C94.893 51.6364 97.0066 52.1667 98.8097 53.2273C100.613 54.2879 102.014 55.803 103.014 57.7727C104.014 59.7273 104.514 62.0606 104.514 64.7727V87H94.8324V66.5C94.8475 64.3636 94.3021 62.697 93.196 61.5C92.09 60.2879 90.5672 59.6818 88.6278 59.6818C87.3248 59.6818 86.1733 59.9621 85.1733 60.5227C84.1884 61.0833 83.4157 61.9015 82.8551 62.9773C82.3097 64.0379 82.0294 65.3182 82.0142 66.8182Z" fill="white"/>
</g>
<defs>
<clipPath id="clip0_2_10">
<rect width="128" height="128" rx="24" fill="white"/>
</clipPath>
</defs>
</svg>
